<svg width="40" height="40" viewBox="0 0 40 40" fill="none" xmlns="http://www.w3.org/2000/svg">
<rect width="40" height="40" fill="#1E1E1E"/>
<g id="MyEvent">
<rect width="390" height="844" transform="translate(-21 -29)" fill="#121212"/>
<g id="Frame 10">
<rect width="390" height="258" transform="translate(-21 -29)" fill="#121212"/>
<g id="Frame 5">
<g id="Frame">
<path id="Vector" d="M19.5938 8.33266V5.31313C19.5938 5.05141 19.293 4.90688 19.0899 5.06704L1.48052 18.8209C1.33091 18.9373 1.20984 19.0863 1.12657 19.2565C1.04329 19.4268 1 19.6138 1 19.8034C1 19.9929 1.04329 20.1799 1.12657 20.3502C1.20984 20.5204 1.33091 20.6694 1.48052 20.7858L19.0899 34.5397C19.2969 34.6999 19.5938 34.5553 19.5938 34.2936V31.2741C19.5938 31.0827 19.504 30.8991 19.3555 30.7819L5.29303 19.8053L19.3555 8.82485C19.504 8.70766 19.5938 8.52407 19.5938 8.33266Z" fill="white"/>
</g>
</g>
</g>
</g>
</svg>
